v<svg width="22" height="22" viewBox="0 0 22 22" fill="none" xmlns="http://www.w3.org/2000/svg">
<path fill-rule="evenodd" clip-rule="evenodd" d="M21.8123 10.7154C21.812 8.69812 21.2352 6.72318 20.1502 5.02438C19.0652 3.32558 17.5175 1.97408 15.6903 1.12986C13.8632 0.285636 11.833 -0.0159393 9.84016 0.260823C7.84735 0.537585 5.97535 1.38109 4.44578 2.6915C2.91621 4.00191 1.79312 5.72434 1.20947 7.65488C0.62582 9.58541 0.606051 11.6432 1.15251 13.5847C1.69896 15.5261 2.78875 17.2699 4.29287 18.6096C5.79698 19.9493 7.65243 20.8288 9.63955 21.144V13.7678H6.96577V10.7154H9.63955V8.38925C9.63955 5.74402 11.2117 4.2817 13.6162 4.2817C14.4058 4.29273 15.1936 4.36171 15.9732 4.4881V7.08619H14.645C13.3379 7.08619 12.929 7.8996 12.929 8.73561V10.7159H15.8486L15.3824 13.7683H12.929V21.145C15.4056 20.7517 17.6609 19.4852 19.2894 17.5733C20.9178 15.6614 21.8124 13.2296 21.8123 10.7154L21.8123 10.7154Z" fill="#3F3D56"/>
</svg>
